<svg id="logo" width="80" height="57"
    xmlns="http://www.w3.org/2000/svg" aria-labelledby="logo" version="1.0" role="img">
    <title id="logo">Rene Gamino's Portfolio</title>
    <g id="Layer_1">
        <path id="svg_2" d="m262.7,74.8c-1.5,1.6 -1.7,4.7 -1.7,22.3l0,20.4l4.5,-0.3l4.5,-0.4l0,-17.3l5.4,0.3l5.4,0.4l3.3,8.3l3.4,8.3l4.5,0.4c2.5,0.3 4.6,0.4 4.7,0.3c0.2,-0.1 -1.3,-3.9 -3.2,-8.4c-1.9,-4.5 -3.5,-8.6 -3.5,-9c0,-0.4 1,-0.7 2.1,-0.8c3.7,-0.3 4.4,-2.1 4.7,-11.9c0.6,-14.5 0.8,-14.4 -17.7,-14.4c-13.1,0 -15,0.2 -16.4,1.8zm6.3,3.5c0,1.4 -2,3.7 -3.2,3.7c-1.2,0 -1,-2.4 0.4,-3.8c1.6,-1.6 2.8,-1.5 2.8,0.1zm22.9,1.7c0.3,2.5 0.3,2.5 -1.8,0.6c-2.6,-2.3 -2.7,-3.9 -0.3,-3.4c0.9,0.2 1.9,1.4 2.1,2.8zm-3.9,6.5l0,4.5l-18,0l0,-9l18,0l0,4.5zm-19.6,6.4c1.7,1.8 1.7,2.1 0.1,4.5c-2.5,3.8 -3.5,3.2 -3.5,-1.9c0,-4.9 0.8,-5.5 3.4,-2.6zm20.4,4.8l-3.4,3.4l-2.2,-3.1l-2.3,-3l3,0c1.6,0 3.9,-0.9 5.2,-1.9c4,-3.2 3.7,0.6 -0.3,4.6zm14.8,-10.5c-1.2,1.7 -1.6,5 -1.6,13.8c0,15.8 0.2,16 12.4,16l9.4,0l0.5,-2.8c0.3,-1.5 0.9,-3.5 1.2,-4.5c0.6,-1.5 -0.1,-1.7 -6.9,-1.7l-7.6,0l0,-14.5l18,0l0,26.5l-11.6,0l-1.6,4.5l-1.7,4.5l10.4,0c8.1,0 10.7,-0.3 11.9,-1.6c1.3,-1.3 1.6,-4.6 1.6,-20.8c0,-13.6 -0.3,-19.5 -1.2,-20.4c-0.8,-0.8 -5.9,-1.2 -16.4,-1.2c-14.7,0 -15.4,0.1 -16.8,2.2zm7.4,2.6c0,1.3 -3.6,4.3 -4.3,3.6c-1,-1 1.2,-4.4 2.8,-4.4c0.8,0 1.5,0.4 1.5,0.8zm22.5,1.3c1,3.1 0.1,3.2 -2.5,0.4c-2.3,-2.5 -2.3,-2.5 -0.2,-2.5c1.2,0 2.3,0.8 2.7,2.1zm-22.8,21.5c-1.2,1.3 -3.7,-0.6 -3.7,-2.8l0,-2.2l2.2,2.1c1.2,1.3 1.9,2.5 1.5,2.9zm23.3,8.7c0,1.4 -2,3.7 -3.2,3.7c-1.2,0 -1,-2.4 0.4,-3.8c1.6,-1.6 2.8,-1.5 2.8,0.1z" />
        <path id="svg_3" d="m3.15524,2.34478c-1.5,1.6 -1.7,4.7 -1.7,22.3l0,20.4l4.5,-0.3l4.5,-0.4l0,-17.3l5.4,0.3l5.4,0.4l3.3,8.3l3.4,8.3l4.5,0.4c2.5,0.3 4.6,0.4 4.7,0.3c0.2,-0.1 -1.3,-3.9 -3.2,-8.4c-1.9,-4.5 -3.5,-8.6 -3.5,-9c0,-0.4 1,-0.7 2.1,-0.8c3.7,-0.3 4.4,-2.1 4.7,-11.9c0.6,-14.5 0.8,-14.4 -17.7,-14.4c-13.1,0 -15,0.2 -16.4,1.8zm6.3,3.5c0,1.4 -2,3.7 -3.2,3.7c-1.2,0 -1,-2.4 0.4,-3.8c1.6,-1.6 2.8,-1.5 2.8,0.1zm22.9,1.7c0.3,2.5 0.3,2.5 -1.8,0.6c-2.6,-2.3 -2.7,-3.9 -0.3,-3.4c0.9,0.2 1.9,1.4 2.1,2.8zm-3.9,6.5l0,4.5l-18,0l0,-9l18,0l0,4.5zm-19.6,6.4c1.7,1.8 1.7,2.1 0.1,4.5c-2.5,3.8 -3.5,3.2 -3.5,-1.9c0,-4.9 0.8,-5.5 3.4,-2.6zm20.4,4.8l-3.4,3.4l-2.2,-3.1l-2.3,-3l3,0c1.6,0 3.9,-0.9 5.2,-1.9c4,-3.2 3.7,0.6 -0.3,4.6zm14.8,-10.5c-1.2,1.7 -1.6,5 -1.6,13.8c0,15.8 0.2,16 12.4,16l9.4,0l0.5,-2.8c0.3,-1.5 0.9,-3.5 1.2,-4.5c0.6,-1.5 -0.1,-1.7 -6.9,-1.7l-7.6,0l0,-14.5l18,0l0,26.5l-11.6,0l-1.6,4.5l-1.7,4.5l10.4,0c8.1,0 10.7,-0.3 11.9,-1.6c1.3,-1.3 1.6,-4.6 1.6,-20.8c0,-13.6 -0.3,-19.5 -1.2,-20.4c-0.8,-0.8 -5.9,-1.2 -16.4,-1.2c-14.7,0 -15.4,0.1 -16.8,2.2zm7.4,2.6c0,1.3 -3.6,4.3 -4.3,3.6c-1,-1 1.2,-4.4 2.8,-4.4c0.8,0 1.5,0.4 1.5,0.8zm22.5,1.3c1,3.1 0.1,3.2 -2.5,0.4c-2.3,-2.5 -2.3,-2.5 -0.2,-2.5c1.2,0 2.3,0.8 2.7,2.1zm-22.8,21.5c-1.2,1.3 -3.7,-0.6 -3.7,-2.8l0,-2.2l2.2,2.1c1.2,1.3 1.9,2.5 1.5,2.9zm23.3,8.7c0,1.4 -2,3.7 -3.2,3.7c-1.2,0 -1,-2.4 0.4,-3.8c1.6,-1.6 2.8,-1.5 2.8,0.1z" />
    </g>
</svg>